<svg version="1.1" id="Layer_1" xmlns="http://www.w3.org/2000/svg" xmlns:xlink="http://www.w3.org/1999/xlink" x="0px" y="0px"
	 width="100%" viewBox="0 0 1024 1024" enable-background="new 0 0 1024 1024" xml:space="preserve">
<path fill="#000000" opacity="1.000000" stroke="none" 
	d="
M459.456665,482.679749 
	C460.654053,474.023682 461.692749,465.786621 462.824341,457.562378 
	C463.820221,450.324677 464.609344,443.037262 466.080902,435.893585 
	C467.094910,430.970947 471.012024,428.490204 475.885712,427.944794 
	C480.560455,427.421600 485.273102,430.426727 487.309296,435.200348 
	C493.381592,449.435883 499.345490,463.717621 505.357849,477.978760 
	C510.139221,489.320099 514.916382,500.663239 519.733521,511.989380 
	C520.305969,513.335388 521.118958,514.579224 522.418701,516.971497 
	C525.104797,511.344971 527.614746,506.606384 529.669800,501.678131 
	C534.408691,490.313934 538.927368,478.857880 543.532654,467.438019 
	C543.781738,466.820282 543.971130,466.176636 544.246216,465.571411 
	C548.947449,455.227631 558.518433,454.239868 565.085083,463.529083 
	C574.218872,476.449707 583.175598,489.495483 592.316345,502.411102 
	C594.572144,505.598419 596.483948,509.139954 600.107361,511.864624 
	C603.584961,507.394592 604.998657,502.211365 606.957275,497.410126 
	C612.545044,483.712372 617.790955,469.873657 623.055176,456.046173 
	C625.475220,449.689514 629.270386,446.803192 636.292358,446.798492 
	C696.120789,446.758270 755.949158,446.742432 815.777588,446.752441 
	C822.617859,446.753571 827.613220,451.284943 827.879761,457.487122 
	C828.122681,463.139099 822.738281,468.564850 816.250916,468.947113 
	C812.429932,469.172272 808.587585,469.056641 804.754822,469.056885 
	C752.259277,469.060150 699.763672,469.093170 647.268372,468.978638 
	C643.530579,468.970490 641.493469,470.148834 640.119751,473.619629 
	C632.957214,491.715759 625.617310,509.741547 618.365601,527.802490 
	C616.693481,531.967041 615.302856,536.252686 613.473511,540.344421 
	C609.299988,549.679443 600.319763,550.843384 594.290710,542.569214 
	C583.307800,527.496277 572.661682,512.177856 561.894714,496.947876 
	C560.841248,495.457794 559.980103,493.823242 557.862244,492.511810 
	C554.776489,497.031433 552.915771,502.137451 550.840332,507.080902 
	C544.919128,521.184570 539.142029,535.349182 533.384338,549.520752 
	C531.434998,554.318787 528.139404,557.140564 522.872253,557.293396 
	C517.409119,557.451843 514.238159,554.167786 512.277832,549.605225 
	C504.664459,531.885559 497.176270,514.112183 489.616669,496.369385 
	C487.495514,491.390839 485.289246,486.448517 482.628479,481.566650 
	C480.791962,489.433533 479.778748,497.299774 478.603973,505.091095 
	C475.777405,523.837891 473.041962,542.597656 470.079254,561.326416 
	C466.912598,581.344543 464.158203,601.427734 461.155182,621.472168 
	C460.251343,627.505005 456.438812,631.500244 451.490723,631.951294 
	C446.873901,632.372192 442.264099,629.230286 440.059875,623.916565 
	C429.803131,599.190125 419.577332,574.450623 409.375458,549.701477 
	C395.114288,515.104614 380.872528,480.499756 366.655212,445.884857 
	C364.830261,441.441620 363.201538,436.917847 361.164978,431.604523 
	C358.351562,436.976044 357.476227,442.132721 356.152374,447.093475 
	C349.943115,470.360474 343.849243,493.658356 337.740326,516.952026 
	C336.266022,522.573669 335.037903,528.263550 333.432861,533.846191 
	C331.551666,540.389221 327.905792,543.124817 321.056885,543.146484 
	C306.725128,543.191833 292.392944,543.063293 278.060883,543.049377 
	C256.062836,543.028015 234.064575,543.094971 212.066788,543.015686 
	C203.962433,542.986511 199.053345,538.960632 198.774231,532.523682 
	C198.474060,525.601318 203.184570,520.902222 210.711105,520.890503 
	C233.209122,520.855530 255.707260,520.916016 278.205353,520.920776 
	C288.704407,520.922974 299.204926,520.777100 309.701660,520.923096 
	C313.074066,520.969971 314.757599,519.968750 315.638733,516.508667 
	C320.554321,497.206604 325.691895,477.960938 330.776520,458.702057 
	C334.452118,444.780304 338.208649,430.879730 341.839294,416.946289 
	C343.598145,410.196259 345.258514,403.416321 346.764648,396.605927 
	C348.092743,390.600311 351.864319,386.564178 357.139740,385.963257 
	C361.690277,385.444916 366.831177,388.887115 369.012115,394.202118 
	C376.845306,413.291870 384.545166,432.436432 392.398621,451.517822 
	C404.681854,481.362091 417.057404,511.168396 429.376740,540.997864 
	C434.070923,552.364258 438.716766,563.750610 443.388336,575.126343 
	C443.757751,576.026001 443.978973,577.039001 445.663757,577.733276 
	C450.239105,546.071777 454.788757,514.588074 459.456665,482.679749 
z"/>
</svg>