<svg version="1.1" id="Layer_1" xmlns="http://www.w3.org/2000/svg" xmlns:xlink="http://www.w3.org/1999/xlink" x="0px" y="0px" width="100%" viewBox="0 0 1024 1024" enable-background="new 0 0 1024 1024" xml:space="preserve">

<path fill="#F7F7F6" opacity="1.000000" stroke="none" d="
M484.582703,482.510254 
	C483.804382,481.001617 483.233582,479.832642 482.293884,477.908173 
	C481.645325,479.567108 481.077545,480.479034 480.939301,481.451996 
	C477.567322,505.185089 474.295380,528.932434 470.891113,552.660828 
	C467.557404,575.897644 464.118195,599.119446 460.675140,622.340454 
	C459.975159,627.061523 456.326782,630.570374 451.789062,631.192993 
	C447.137390,631.831238 442.509155,628.923950 440.502502,624.003479 
	C435.419006,611.538330 430.400879,599.046448 425.303955,586.586792 
	C405.476898,538.118713 385.626984,489.659943 365.793976,441.194275 
	C364.205231,437.311859 362.680664,433.403198 361.126251,429.506714 
	C360.615936,429.558777 360.105621,429.610809 359.595306,429.662872 
	C358.235352,435.367340 356.962372,441.094177 355.500824,446.772491 
	C348.088684,475.569153 340.628571,504.353485 333.183044,533.141541 
	C331.453369,539.829224 328.454437,542.299194 321.540527,542.299866 
	C284.880463,542.303467 248.220413,542.227295 211.560349,542.233826 
	C206.541168,542.234680 202.189713,541.043091 200.074951,536.057922 
	C196.935989,528.658447 201.618225,521.681030 209.720108,521.665955 
	C242.701599,521.604797 275.683502,521.563049 308.664581,521.687988 
	C313.152222,521.704956 315.402435,521.167236 316.713623,515.798401 
	C324.668793,483.224426 333.277924,450.810150 341.665680,418.341797 
	C343.576691,410.944366 345.535553,403.558594 347.361481,396.140137 
	C348.738312,390.546234 352.030151,387.176819 356.884613,386.699341 
	C362.192566,386.177216 366.653381,389.108124 368.855530,394.562805 
	C376.197784,412.749390 383.488159,430.957184 390.893707,449.118011 
	C407.721558,490.385468 424.603790,531.630737 441.473450,572.881165 
	C442.514435,575.426636 443.638184,577.938293 445.826324,580.374023 
	C446.118500,578.726501 446.461212,577.086182 446.695496,575.430481 
	C452.410492,535.038147 458.101990,494.642487 463.832947,454.252441 
	C464.651703,448.482147 465.699493,442.744659 466.552948,436.978912 
	C467.293579,431.975464 470.393463,429.385773 475.106812,428.541412 
	C479.710266,427.716705 484.473419,430.174927 486.484772,434.753082 
	C490.696625,444.340088 494.679901,454.028076 498.710693,463.693939 
	C506.066956,481.334259 513.386902,498.989746 520.735229,516.633362 
	C521.036621,517.357056 521.473206,518.024475 522.374817,519.698425 
	C523.790161,516.825745 524.949341,514.780945 525.835876,512.624146 
	C532.157349,497.245422 538.511902,481.879120 544.652100,466.427856 
	C546.470032,461.853088 549.213928,458.480408 554.173767,458.018677 
	C559.101868,457.559906 562.434814,460.344391 565.172974,464.406860 
	C576.048096,480.541931 587.120239,496.544281 598.153442,512.572388 
	C598.586914,513.202026 599.368164,513.592346 600.589600,514.582336 
	C601.636902,512.161133 602.572266,510.153870 603.384033,508.097839 
	C610.406555,490.310120 617.419495,472.518616 624.405884,454.716675 
	C626.480713,449.429749 629.469849,447.342865 636.045898,447.311035 
	C652.542664,447.231232 669.039978,447.274933 685.537109,447.282745 
	C728.362915,447.303009 771.188843,447.308746 814.014465,447.409119 
	C816.605530,447.415192 819.501831,447.601593 821.719177,448.745148 
	C825.985229,450.945160 827.579651,455.004120 826.775330,459.730103 
	C826.020264,464.166382 821.921814,467.676300 817.319336,467.968903 
	C814.496826,468.148315 811.656189,468.063782 808.823730,468.063721 
	C754.500000,468.062561 700.175964,468.133362 645.853149,467.905975 
	C641.471191,467.887665 640.493408,470.213776 639.333008,473.153961 
	C630.730408,494.950378 622.074524,516.726440 613.631042,538.584473 
	C611.853943,543.184937 609.242126,546.536438 604.259827,547.091309 
	C599.341309,547.638977 596.427490,544.505554 593.818176,540.716492 
	C582.976257,524.972595 572.003479,509.318634 561.006897,493.682159 
	C560.194092,492.526489 558.812317,491.771027 557.242859,490.448364 
	C555.359802,494.915985 553.582703,499.101471 551.829712,503.297058 
	C545.420471,518.637024 538.957764,533.955139 532.653625,549.338196 
	C530.829407,553.789673 527.873474,556.642395 523.057861,556.758423 
	C518.226440,556.874878 514.946045,554.174500 513.102539,549.778687 
	C504.422302,529.080627 495.769196,508.371246 487.086578,487.674225 
	C486.398376,486.033691 485.559235,484.456512 484.582703,482.510254 
z" data-index="1"></path>
</svg>